<?xml version="1.0" standalone="no"?>
<!DOCTYPE svg PUBLIC "-//W3C//DTD SVG 20010904//EN"
 "http://www.w3.org/TR/2001/REC-SVG-20010904/DTD/svg10.dtd">
<svg version="1.0" xmlns="http://www.w3.org/2000/svg"
 width="1280.000000pt" height="719.000000pt" viewBox="0 0 1280.000000 719.000000"
 preserveAspectRatio="xMidYMid meet">
<metadata>
Created by potrace 1.15, written by Peter Selinger 2001-2017
</metadata>
<g transform="translate(0.000000,719.000000) scale(0.100000,-0.100000)"
fill="#000000" stroke="none">
<path d="M4753 6099 c-420 -88 -726 -354 -847 -737 -40 -126 -49 -209 -43
-382 5 -161 22 -244 77 -380 61 -154 185 -337 301 -445 139 -130 386 -335 404
-335 6 0 27 -16 49 -35 21 -19 41 -35 45 -35 3 0 19 -12 36 -28 16 -15 68 -56
117 -92 48 -36 111 -87 140 -112 29 -26 94 -81 143 -123 114 -98 313 -292 377
-368 67 -80 145 -198 175 -264 29 -64 63 -184 63 -227 l0 -29 148 7 c208 9
325 17 341 22 29 9 -6 203 -66 354 -120 306 -354 585 -770 915 -21 17 -114 87
-208 154 -93 68 -177 131 -185 141 -8 9 -89 73 -180 142 -207 158 -286 230
-367 337 -117 156 -164 288 -164 459 0 110 16 187 55 263 25 50 45 74 101 116
132 100 279 143 496 144 251 1 417 -53 546 -177 l64 -60 25 30 c13 17 29 37
36 45 6 7 20 32 31 55 11 22 23 43 27 46 16 11 113 188 125 227 l13 43 -61 54
c-163 142 -363 236 -598 281 -115 21 -329 19 -446 -6z"/>
<path d="M8390 4905 l0 -745 -890 0 -890 0 0 -479 c0 -263 3 -493 6 -510 5
-23 15 -35 40 -46 19 -8 51 -22 71 -31 95 -42 265 -15 365 59 l28 21 0 198 0
198 635 0 635 0 0 -735 0 -735 250 0 250 0 0 1775 0 1775 -250 0 -250 0 0
-745z"/>
<path d="M6210 2047 c-3 -3 -63 -8 -135 -12 -71 -4 -148 -9 -170 -10 -22 -2
-86 -4 -141 -4 l-102 -1 -43 -56 c-89 -116 -291 -240 -464 -284 -108 -28 -322
-31 -410 -6 -145 43 -322 145 -415 240 -39 40 -49 46 -87 46 -47 0 -345 41
-466 65 -43 8 -90 15 -103 15 l-25 0 37 -57 c152 -239 361 -458 549 -573 208
-128 413 -187 681 -197 333 -12 599 64 848 242 82 59 230 204 294 290 55 73
166 279 160 296 -2 6 -6 8 -8 6z"/>
</g>
</svg>
